<svg width="724" height="470" viewBox="0 0 724 470" fill="none" xmlns="http://www.w3.org/2000/svg">
<path d="M73.0002 2C54.2225 2 33.0002 22 43.0002 48C6.50022 61 7.00022 104.5 41.0002 116.5C41.0002 96.8939 57.7895 81 78.5002 81C96.866 81 112.148 93.4986 115.373 110.001C118.073 108.705 120.976 108 124 108C137.924 108 149.292 122.945 149.968 141.728C156.945 131.683 169.354 125 183.5 125C202.503 125 218.371 137.06 222.147 153.128C227.208 149.874 233.148 148 239.5 148C255.313 148 268.568 159.611 272.085 175.226C276.571 171.911 281.85 170 287.5 170C296.064 170 306.111 179.487 311.5 186.5C317.803 179.487 328.485 172.5 338.5 172.5C349.951 172.5 361.013 179.825 367.5 188.5C367.5 168.894 383.461 152 405 152C417.801 152 429.161 157.614 436.272 166.284C438.562 148.665 455.028 135 475 135C492.583 135 507.448 145.592 512.316 160.148C519.412 148.229 534.516 140 552.001 140C565.716 140 576.911 144.063 584.981 152C584.981 132.394 600.501 110 629.001 113C664.001 113.747 668.001 142.5 669.501 150C669.501 150 695.501 113.747 657.001 100.5C661.501 83 650.501 59 621.501 59C599.685 59 583.001 77.3935 583.001 97.2757C575.811 88.3576 564.574 83 551.501 83C531.643 83 515.208 96.3544 512.418 113.747C504.882 103.681 491.612 97 476.5 97C457.344 97 441.147 107.736 435.839 122.492C427.404 114.842 414.924 110 401 110C378.409 110 359.622 122.745 355.737 139.548C351.279 137.274 346.28 136 341 136C333.044 136 325.726 138.893 319.934 143.741C318.833 124.911 304.061 110 286 110C279.807 110 274.001 111.753 269 114.816C269 94.9339 253.778 78 235 78C222.401 78 211.403 85.256 205.529 96.0366C199.53 90.4135 191.642 87 183 87C179.883 87 176.863 87.4443 173.995 88.2762C170.312 72.6092 156.937 61 141 61C137.605 61 134.594 62.0189 131.5 63C127.804 51.3732 118.384 41.9091 107 39.0022C107 19.1199 91.7779 2 73.0002 2Z" fill="#D69FA6"/>
<path d="M43.0002 248C43.0002 230.327 57.1032 216 74.5002 216C91.8972 216 106 230.327 106 248C106 250.023 105.815 252.003 105.462 253.922C111.983 247.176 121.017 243 131 243C142.321 243 152.421 248.371 159.021 256.768C159.183 256.974 159.342 257.182 159.5 257.392C159.5 239.995 148.912 225 134 225C132.562 225 131.149 225.131 129.772 225.384C128.043 209.932 116.716 198 103 198C100.319 198 97.7292 198.456 95.2845 199.305C95.7533 196.629 96.0002 193.85 96.0002 191C96.0002 169.461 81.8972 152 64.5002 152C47.1032 152 33.0002 169.461 33.0002 191C-1.49978 210 6.50022 248 43.0002 248Z" fill="#DDA3A9"/>
<path d="M654.501 171.5C646.012 164.76 635.075 160.148 622.001 160.148C607.501 160.148 583.001 176.789 583.001 197.5C583.001 198.909 583.067 200.3 583.196 201.669C579.438 199.949 575.319 199 571.001 199C555.484 199 542.548 211.251 539.621 227.509C536.645 225.89 533.399 225 530 225C515.672 225 504.05 240.826 504 260.374C513.404 264.676 520.838 272.773 524.503 282.798C530.877 268.779 545.268 259 562.001 259C572.24 259 581.602 262.662 588.787 268.717C587.626 265.011 587.001 261.077 587.001 257C587.001 234.909 601.501 219.476 628.001 217C656.501 217 665.001 245.5 654.501 260.374C695.501 227.509 675.001 187.778 654.501 171.5Z" fill="#DDA3A9"/>
<path d="M622.001 160.148C635.075 160.148 646.012 164.76 654.501 171.5C664.713 166.541 669.501 160.148 669.501 150C668.001 142.5 664.001 113.747 629.001 113C600.501 110 584.981 132.394 584.981 152C576.911 144.063 565.716 140 552.001 140C534.516 140 519.412 148.229 512.316 160.148C507.448 145.592 492.583 135 475 135C455.028 135 438.562 148.665 436.272 166.284C429.161 157.614 417.801 152 405 152C383.461 152 367.5 168.894 367.5 188.5C361.013 179.825 349.951 172.5 338.5 172.5C328.485 172.5 317.803 179.487 311.5 186.5C306.111 179.487 296.064 170 287.5 170C281.85 170 276.571 171.911 272.085 175.226C268.568 159.611 255.313 148 239.5 148C233.148 148 227.208 149.874 222.147 153.128C218.371 137.06 202.503 125 183.5 125C169.354 125 156.945 131.683 149.968 141.728C149.292 122.945 137.924 108 124 108C120.976 108 118.073 108.705 115.373 110.001C112.148 93.4986 96.866 81 78.5002 81C57.7895 81 41.0002 96.8939 41.0002 116.5C-1.99986 125 6.50014 181 33.0002 191C33.0002 169.461 47.1032 152 64.5002 152C81.8972 152 96.0002 169.461 96.0002 191C96.0002 193.85 95.7533 196.629 95.2845 199.305C97.7292 198.456 100.319 198 103 198C116.716 198 128.043 209.932 129.772 225.384C131.149 225.131 132.562 225 134 225C148.912 225 159.5 239.995 159.5 257.392C163.198 262.309 165.718 268.21 166.626 274.647C171.704 271.086 177.863 269 184.5 269C182 241 203.984 225 220 225C233.833 225 245.403 235.519 248.301 249.595C250.561 248.561 252.983 248 255.5 248C264.82 248 272.816 255.68 276.231 266.627C278.512 265.572 280.957 265 283.5 265C294.842 265 307.557 269.712 309.689 283.343C309.303 266.048 320.965 257 332.5 257C333.687 257 334.852 257.125 335.989 257.365C339.199 244.469 349.853 235 362.5 235C370.067 235 376.921 238.39 381.893 243.875C387.519 232.647 398.667 225 411.5 225C428.662 225 442.809 238.675 444.768 256.303C447.637 254.815 450.749 254 454 254C460.144 254 465.791 256.91 470.241 261.776C475.674 258.729 481.893 257 488.5 257C494.014 257 499.258 258.204 504 260.374C504.05 240.826 515.672 225 530 225C533.399 225 536.645 225.89 539.621 227.509C542.548 211.251 555.484 199 571.001 199C575.319 199 579.438 199.949 583.196 201.669C583.067 200.3 583.001 198.909 583.001 197.5C583.001 176.789 607.501 160.148 622.001 160.148Z" fill="#BC91A5"/>
<path d="M184.5 269C201.897 269 216 283.327 216 301C216 301.762 215.974 302.519 215.922 303.268C221.976 297.539 230.305 294 239.5 294C258.002 294 272.969 307.983 272.969 325.656C279.01 314.894 291.583 308 306.5 308C316.37 308 325.349 311.254 332.045 316.572C332.015 316.051 332 315.527 332 315C332 297.327 348.789 283 369.5 283C387.092 283 401.855 293.337 405.902 307.282C409.921 295.406 419.867 287 431.5 287C438.64 287 445.144 290.166 450.032 295.357C450.597 280.825 458.625 268.29 470.241 261.776C465.791 256.91 460.144 254 454 254C450.749 254 447.637 254.815 444.768 256.303C442.809 238.675 428.662 225 411.5 225C398.667 225 387.519 232.647 381.893 243.875C376.921 238.39 370.067 235 362.5 235C349.853 235 339.199 244.469 335.989 257.365C334.852 257.125 333.687 257 332.5 257C320.965 257 309.303 266.048 309.689 283.343C309.893 284.646 310 286.03 310 287.5C309.821 286.065 309.719 284.679 309.689 283.343C307.557 269.712 294.842 265 283.5 265C280.957 265 278.512 265.572 276.231 266.627C272.816 255.68 264.82 248 255.5 248C252.983 248 250.561 248.561 248.301 249.595C245.403 235.519 233.833 225 220 225C203.984 225 182 241 184.5 269Z" fill="#BF8F9F"/>
<path d="M654.501 260.374C665.001 245.5 656.501 217 628.001 217C601.501 219.476 587.001 234.909 587.001 257C587.001 261.077 587.626 265.011 588.787 268.717C581.602 262.662 572.24 259 562.001 259C545.268 259 530.877 268.779 524.503 282.798C520.838 272.773 513.404 264.676 504 260.374C499.258 258.204 494.014 257 488.5 257C481.893 257 475.674 258.729 470.241 261.776C458.625 268.29 450.597 280.825 450.032 295.357C445.144 290.166 438.64 287 431.5 287C419.867 287 409.921 295.406 405.902 307.282C401.855 293.337 387.092 283 369.5 283C348.789 283 332 297.327 332 315C332 315.527 332.015 316.051 332.045 316.572C325.349 311.254 316.37 308 306.5 308C291.583 308 279.01 314.894 272.969 325.656C272.969 307.983 258.002 294 239.5 294C230.305 294 221.976 297.539 215.922 303.268C215.974 302.519 216 301.762 216 301C216 283.327 201.897 269 184.5 269C177.863 269 171.704 271.086 166.626 274.647C165.718 268.21 163.198 262.309 159.5 257.392C159.342 257.182 159.183 256.974 159.021 256.768C152.421 248.371 142.321 243 131 243C121.017 243 111.983 247.176 105.462 253.922C105.815 252.003 106 250.023 106 248C106 230.327 91.8972 216 74.5002 216C57.1032 216 43.0002 230.327 43.0002 248C-6.49979 265 -13 316.572 33.0002 346.5C33.0002 326.342 50.4611 310 72.0002 310C88.9652 310 103.4 320.138 108.766 334.294C117.084 318.651 133.548 308 152.5 308C177.735 308 198.56 326.883 201.614 351.291C209.46 343.111 220.619 338 233 338C254.456 338 272.241 353.349 275.475 373.418C283.266 365.749 294.065 361 306 361C322.649 361 337.087 370.241 344.233 383.759C351.174 366.152 365.925 354 383 354C390.812 354 398.137 356.543 404.45 360.988C410.356 340.604 426.281 326 445 326C455.342 326 464.832 330.458 472.249 337.885C476.876 314.983 493.814 298 514 298C530.64 298 545.073 309.54 552.222 326.422C558.236 305.292 575.787 290 596.501 290C622.182 290 641.001 314.005 641.001 343C669.167 343 692.001 365.833 692.001 394C737.099 365.654 712.501 326 686.001 320C696.501 301 701.501 268.717 654.501 260.374Z" fill="#B696A8"/>
<path d="M43.0002 403.5C43.0002 385.551 57.9987 371 76.5002 371C95.0018 371 110 387.051 110 405C116.574 397.179 126.286 393 138 393C157.882 393 174 407.551 174 425.5C174 426.365 173.963 427.222 173.889 428.071C179.572 420.708 188.262 416 198 416C212.488 416 224.654 426.419 228.054 440.5C231.702 437.641 235.956 436 240.5 436C254.031 436 265 450.551 265 468.5H350.5C347 440.5 370.7 416 395 416C413.881 416 429.984 425.865 436.228 439.72C438.455 414.035 456.755 394 479 394C493.874 394 506.983 402.956 514.705 416.57C521.542 396.465 540.582 382 563.001 382C572.987 382 582.303 384.87 590.169 389.831C592.29 363.614 614.238 343 641.001 343C641.001 314.005 622.182 290 596.501 290C575.787 290 558.236 305.292 552.222 326.422C545.073 309.54 530.64 298 514 298C493.814 298 476.876 314.983 472.249 337.885C464.832 330.458 455.342 326 445 326C426.281 326 410.356 340.604 404.45 360.988C398.137 356.543 390.812 354 383 354C365.925 354 351.174 366.152 344.233 383.759C337.087 370.241 322.649 361 306 361C294.065 361 283.266 365.749 275.475 373.418C272.241 353.349 254.456 338 233 338C220.619 338 209.46 343.111 201.614 351.291C198.56 326.883 177.735 308 152.5 308C133.548 308 117.084 318.651 108.766 334.294C103.4 320.138 88.9652 310 72.0002 310C50.4611 310 33.0002 326.342 33.0002 346.5C6.00004 354 -2.49996 399 43.0002 403.5Z" fill="#C397A9"/>
<path d="M395 416C370.7 416 347 440.5 350.5 468.5H692.001C730.001 468.5 734.501 402.5 692.001 394C692.001 365.833 669.167 343 641.001 343C614.238 343 592.29 363.614 590.169 389.831C582.303 384.87 572.987 382 563.001 382C540.582 382 521.542 396.465 514.705 416.57C506.983 402.956 493.874 394 479 394C456.755 394 438.455 414.035 436.228 439.72C429.984 425.865 413.881 416 395 416Z" fill="#AC8FA4"/>
<path d="M76.5002 371C57.9987 371 43.0002 385.551 43.0002 403.5C1.00004 411.5 0 468.5 43.0002 468.5H265C265 450.551 254.031 436 240.5 436C235.956 436 231.702 437.641 228.054 440.5C224.654 426.419 212.488 416 198 416C188.262 416 179.572 420.708 173.889 428.071C173.963 427.222 174 426.365 174 425.5C174 407.551 157.882 393 138 393C126.286 393 116.574 397.179 110 405C110 387.051 95.0018 371 76.5002 371Z" fill="#A68AA0"/>
<path d="M654.501 171.5C646.012 164.76 635.075 160.148 622.001 160.148C607.501 160.148 583.001 176.789 583.001 197.5C583.001 198.909 583.067 200.3 583.196 201.669C579.438 199.949 575.319 199 571.001 199C555.484 199 542.548 211.251 539.621 227.509C536.645 225.89 533.399 225 530 225C515.672 225 504.05 240.826 504 260.374M654.501 171.5C675.001 187.778 695.501 227.509 654.501 260.374M654.501 171.5C664.713 166.541 669.501 160.148 669.501 150M654.501 260.374C665.001 245.5 656.501 217 628.001 217C601.501 219.476 587.001 234.909 587.001 257C587.001 261.077 587.626 265.011 588.787 268.717C581.602 262.662 572.24 259 562.001 259C545.268 259 530.877 268.779 524.503 282.798C520.838 272.773 513.404 264.676 504 260.374M654.501 260.374C701.501 268.717 696.501 301 686.001 320C712.501 326 737.099 365.654 692.001 394M504 260.374C499.258 258.204 494.014 257 488.5 257C481.893 257 475.674 258.729 470.241 261.776M504 260.374C504 260.416 504 260.458 504 260.5M669.501 150C668.001 142.5 664.001 113.747 629.001 113C600.501 110 584.981 132.394 584.981 152C576.911 144.063 565.716 140 552.001 140C534.516 140 519.412 148.229 512.316 160.148C507.448 145.592 492.583 135 475 135C455.028 135 438.562 148.665 436.272 166.284C429.161 157.614 417.801 152 405 152C383.461 152 367.5 168.894 367.5 188.5C361.013 179.825 349.951 172.5 338.5 172.5C328.485 172.5 317.803 179.487 311.5 186.5C306.111 179.487 296.064 170 287.5 170C281.85 170 276.571 171.911 272.085 175.226C268.568 159.611 255.313 148 239.5 148C233.148 148 227.208 149.874 222.147 153.128C218.371 137.06 202.503 125 183.5 125C169.354 125 156.945 131.683 149.968 141.728C149.292 122.945 137.924 108 124 108C120.976 108 118.073 108.705 115.373 110.001C112.148 93.4986 96.866 81 78.5002 81C57.7895 81 41.0002 96.8939 41.0002 116.5M669.501 150C669.501 150 695.501 113.747 657.001 100.5C661.501 83 650.501 59 621.501 59C599.685 59 583.001 77.3935 583.001 97.2757C575.811 88.3576 564.574 83 551.501 83C531.643 83 515.208 96.3544 512.418 113.747C504.882 103.681 491.612 97 476.5 97C457.344 97 441.147 107.736 435.839 122.492C427.404 114.842 414.924 110 401 110C378.409 110 359.622 122.745 355.737 139.548C351.279 137.274 346.28 136 341 136C333.044 136 325.726 138.893 319.934 143.741C318.833 124.911 304.061 110 286 110C279.807 110 274.001 111.753 269 114.816C269 94.9339 253.778 78 235 78C222.401 78 211.403 85.256 205.529 96.0366C199.53 90.4135 191.642 87 183 87C179.883 87 176.863 87.4443 173.995 88.2762C170.312 72.6092 156.937 61 141 61C137.605 61 134.594 62.0189 131.5 63C127.804 51.3732 118.384 41.9091 107 39.0022C107 19.1199 91.7779 2 73.0002 2C54.2225 2 33.0002 22 43.0002 48C6.50022 61 7.00022 104.5 41.0002 116.5M41.0002 116.5C-1.99986 125 6.50014 181 33.0002 191M43.0002 248C43.0002 230.327 57.1032 216 74.5002 216C91.8972 216 106 230.327 106 248C106 250.023 105.815 252.003 105.462 253.922C111.983 247.176 121.017 243 131 243C142.321 243 152.421 248.371 159.021 256.768M43.0002 248C6.50022 248 -1.49978 210 33.0002 191M43.0002 248C-6.49979 265 -13 316.572 33.0002 346.5M184.5 269C201.897 269 216 283.327 216 301C216 301.762 215.974 302.519 215.922 303.268C221.976 297.539 230.305 294 239.5 294C258.002 294 272.969 307.983 272.969 325.656C279.01 314.894 291.583 308 306.5 308C316.37 308 325.349 311.254 332.045 316.572C332.015 316.051 332 315.527 332 315C332 297.327 348.789 283 369.5 283C387.092 283 401.855 293.337 405.902 307.282C409.921 295.406 419.867 287 431.5 287C438.64 287 445.144 290.166 450.032 295.357C450.597 280.825 458.625 268.29 470.241 261.776M184.5 269C177.863 269 171.704 271.086 166.626 274.647M184.5 269C182 241 203.984 225 220 225C233.833 225 245.403 235.519 248.301 249.595C250.561 248.561 252.983 248 255.5 248C264.82 248 272.816 255.68 276.231 266.627C278.512 265.572 280.957 265 283.5 265C294.842 265 307.557 269.712 309.689 283.343M166.626 274.647C165.718 268.21 163.198 262.309 159.5 257.392M166.626 274.647C165.68 267.935 162.981 261.807 159.021 256.768M103 190C103 178.954 115.536 170 131 170C144.939 170 158.355 181.476 160.5 191C165.613 183.419 173.616 177 184.5 177C200.793 177 214 189.972 214 204.056C216.825 203.371 219.852 203 223 203C238.464 203 251 211.954 251 223C251 224.864 250.643 226.669 249.975 228.381C252.513 226.862 255.416 226 258.5 226C268.441 226 278 236.954 278 248M542.001 196.429C535.344 191.788 526.808 189 517.5 189C499.074 189 483.671 199.927 479.889 214.524C473.782 201.883 459.341 193 442.5 193C424.794 193 409.742 202.819 404.237 216.5M43.0002 403.5C43.0002 385.551 57.9987 371 76.5002 371C95.0018 371 110 387.051 110 405C116.574 397.179 126.286 393 138 393C157.882 393 174 407.551 174 425.5C174 426.365 173.963 427.222 173.889 428.071C179.572 420.708 188.262 416 198 416C212.488 416 224.654 426.419 228.054 440.5C231.702 437.641 235.956 436 240.5 436C254.031 436 265 450.551 265 468.5M43.0002 403.5C-2.49996 399 6.00004 354 33.0002 346.5M43.0002 403.5C1.00004 411.5 0 468.5 43.0002 468.5H265M265 468.5H692.001M265 468.5H350.5M350.5 468.5C347 440.5 370.7 416 395 416C413.881 416 429.984 425.865 436.228 439.72C438.455 414.035 456.755 394 479 394C493.874 394 506.983 402.956 514.705 416.57C521.542 396.465 540.582 382 563.001 382C572.987 382 582.303 384.87 590.169 389.831C592.29 363.614 614.238 343 641.001 343M350.5 468.5H692.001M641.001 343C669.167 343 692.001 365.833 692.001 394M641.001 343C641.001 314.005 622.182 290 596.501 290C575.787 290 558.236 305.292 552.222 326.422C545.073 309.54 530.64 298 514 298C493.814 298 476.876 314.983 472.249 337.885C464.832 330.458 455.342 326 445 326C426.281 326 410.356 340.604 404.45 360.988C398.137 356.543 390.812 354 383 354C365.925 354 351.174 366.152 344.233 383.759C337.087 370.241 322.649 361 306 361C294.065 361 283.266 365.749 275.475 373.418C272.241 353.349 254.456 338 233 338C220.619 338 209.46 343.111 201.614 351.291C198.56 326.883 177.735 308 152.5 308C133.548 308 117.084 318.651 108.766 334.294C103.4 320.138 88.9652 310 72.0002 310C50.4611 310 33.0002 326.342 33.0002 346.5M692.001 394C734.501 402.5 730.001 468.5 692.001 468.5M33.0002 191C33.0002 169.461 47.1032 152 64.5002 152C81.8972 152 96.0002 169.461 96.0002 191C96.0002 193.85 95.7533 196.629 95.2845 199.305C97.7292 198.456 100.319 198 103 198C116.716 198 128.043 209.932 129.772 225.384C131.149 225.131 132.562 225 134 225C148.912 225 159.5 239.995 159.5 257.392M159.5 257.392C159.342 257.182 159.183 256.974 159.021 256.768M470.241 261.776C465.791 256.91 460.144 254 454 254C450.749 254 447.637 254.815 444.768 256.303C442.809 238.675 428.662 225 411.5 225C398.667 225 387.519 232.647 381.893 243.875C376.921 238.39 370.067 235 362.5 235C349.853 235 339.199 244.469 335.989 257.365C334.852 257.125 333.687 257 332.5 257C320.965 257 309.303 266.048 309.689 283.343M309.689 283.343C309.719 284.679 309.821 286.065 310 287.5C310 286.03 309.893 284.646 309.689 283.343Z" stroke="#AB7C8C" stroke-width="3"/>
</svg>
