<svg width="173" height="62" viewBox="0 0 173 62" fill="none" xmlns="http://www.w3.org/2000/svg">
<path d="M109.522 20.664C123.012 24.0367 126.289 32.981 129.194 33.6273C129.408 33.6749 129.634 33.6256 129.842 33.5562C158.13 24.1144 172.516 44.8991 171.022 52.3709C169.522 59.8709 163.026 59.8709 163.026 59.8709H118.144H81.9714H74.9427H22.5216C0.521576 59.8709 2.02158 46.664 2.02158 46.664C2.02158 46.664 4.26576 29.6082 27.8905 32.9191C29.5547 33.1523 30.9404 31.3955 30.4104 29.8008C24.8594 13.0981 40.2533 2.9918 50.0216 2.16397C79.5216 -0.336029 77.3858 26.592 83.5216 25.6642C89.6573 24.7364 95.5216 17.164 109.522 20.664Z" fill="#E9A8A6" stroke="#AB7C8C" stroke-width="3" stroke-linejoin="round"/>
</svg>
