<svg width="158" height="66" viewBox="0 0 158 66" fill="none" xmlns="http://www.w3.org/2000/svg">
<path d="M40.2416 37.2759C16.9866 30.0471 2 45.8905 2 56.5172C2 58.8735 2.64771 61.0625 3.90868 63.1321C4.24736 63.6879 4.86552 64 5.51645 64H60.2194H105.143H113.872H151.062C151.613 64 152.144 63.7763 152.502 63.3573C154.733 60.7454 156 57.6841 156 54.3793C156 44.9333 146.341 37.2759 133.339 37.2759C129.856 37.2759 126.55 37.8254 123.576 38.8116C122.251 39.2509 120.783 38.3762 120.568 36.9974C118.155 21.571 104.69 2 83.1342 2C60.2194 2 41.607 21.7646 40.2416 37.2759Z" fill="#D199A0"/>
<path d="M40.2416 37.2759C16.9866 30.0471 2 45.8905 2 56.5172C2 58.8735 2.64771 61.0625 3.90868 63.1321C4.24736 63.6879 4.86552 64 5.51645 64H60.2194H105.143H113.872H151.062C151.613 64 152.144 63.7763 152.502 63.3573C154.733 60.7454 156 57.6841 156 54.3793C156 44.9333 146.341 37.2759 133.339 37.2759C129.856 37.2759 126.55 37.8254 123.576 38.8116C122.251 39.2509 120.783 38.3762 120.568 36.9974C118.155 21.571 104.69 2 83.1342 2C60.2194 2 41.607 21.7646 40.2416 37.2759ZM40.2416 37.2759C63.4966 44.5046 35.9368 35.9377 40.2416 37.2759Z" stroke="#AB7C8C" stroke-width="3" stroke-linejoin="round"/>
</svg>
