<svg width="173" height="62" viewBox="0 0 173 62" fill="none" xmlns="http://www.w3.org/2000/svg">
<path d="M63.5 21C50.0092 24.3727 46.7328 33.3171 43.8279 33.9633C43.6138 34.0109 43.3875 33.9616 43.1794 33.8922C14.8913 24.4504 0.505566 45.2351 1.99997 52.7069C3.5 60.2069 9.99532 60.2069 9.99532 60.2069H54.8778H91.0501H98.0789H150.5C172.5 60.2069 171 47 171 47C171 47 168.756 29.9442 145.131 33.2551C143.467 33.4884 142.081 31.7316 142.611 30.1368C148.162 13.4341 132.768 3.32783 123 2.5C93.5 0 95.6357 26.928 89.5 26.0002C83.3642 25.0724 77.5 17.5 63.5 21Z" fill="#CA95A0" stroke="#AB7C8C" stroke-width="3" stroke-linejoin="round"/>
</svg>
