<svg width="153" height="62" viewBox="0 0 153 62" fill="none" xmlns="http://www.w3.org/2000/svg">
<path d="M39 35C16.5 28.2376 2 43.0589 2 53C2 55.1925 2.61999 57.2301 3.82716 59.1569C4.16677 59.699 4.77616 60 5.41584 60H58.3291H101.794H110.24H146.214C146.753 60 147.275 59.786 147.631 59.3812C149.78 56.9417 151 54.0842 151 51C151 42.1634 141.655 35 129.075 35C125.728 35 122.549 35.5072 119.686 36.4183C118.368 36.8376 116.922 35.9645 116.695 34.6002C114.299 20.1908 101.289 2 80.5 2C58.3291 2 40.3211 20.4895 39 35Z" fill="#EBAAA8"/>
<path d="M39 35C16.5 28.2376 2 43.0589 2 53C2 55.1925 2.61999 57.2301 3.82716 59.1569C4.16677 59.699 4.77616 60 5.41584 60H58.3291H101.794H110.24H146.214C146.753 60 147.275 59.786 147.631 59.3812C149.78 56.9417 151 54.0842 151 51C151 42.1634 141.655 35 129.075 35C125.728 35 122.549 35.5072 119.686 36.4183C118.368 36.8376 116.922 35.9645 116.695 34.6002C114.299 20.1908 101.289 2 80.5 2C58.3291 2 40.3211 20.4895 39 35ZM39 35C61.5 41.7624 34.835 33.7482 39 35Z" stroke="#AB7C8C" stroke-width="3" stroke-linejoin="round"/>
</svg>
