<svg width="153" height="62" viewBox="0 0 153 62" fill="none" xmlns="http://www.w3.org/2000/svg">
<path d="M38.2913 22.1914L34.7261 21.1029C34.7261 21.1029 24.3132 18.2264 18.363 26.0987C12.9087 33.315 16.2355 41.0864 12.4128 41.0864C4.47925 41.0864 1.99999 47.3992 2 51.6333C2.00003 61.0699 9.92899 59.9597 9.92899 59.9597H54.439H90.311H97.2814H148.211C148.872 59.9597 149.502 59.6395 149.79 59.0445C151.52 55.4677 152.175 48.0599 146.292 45.5272C140.861 43.1886 137.894 44.7908 135.018 45.3533C134.087 45.5354 133.262 44.8323 133.036 43.9106C127.872 22.8412 111.986 28.5164 105.593 31.7944C104.292 32.4616 102.572 31.7217 102.194 30.3091C100.207 22.8806 93.3243 4.28115 73.8982 2.22951C52.1473 -0.0676556 43.3037 15.5071 40.9015 20.9436C40.4591 21.9451 39.3385 22.5111 38.2913 22.1914Z" fill="#D097A2" stroke="#AB7C8C" stroke-width="3" stroke-linejoin="round"/>
</svg>
