<svg width="154" height="56" viewBox="0 0 154 56" fill="none" xmlns="http://www.w3.org/2000/svg">
<path d="M38.7132 20.0127L35 19C35 19 24.5 16.4091 18.5 23.5C13 30 16.3546 37 12.5 37C4.5 37 1.99999 42.6862 2 46.5C2.00003 55 9.99536 54 9.99536 54H54.8779H91.0502H98.0789H149.511C150.134 54 150.734 53.7166 151.031 53.1683C152.772 49.9437 153.427 43.2796 147.5 41C141.992 38.8816 138.997 40.3532 136.082 40.8519C135.164 41.0089 134.353 40.3334 134.103 39.4361C128.821 20.4282 112.628 25.7698 106.302 28.7035C105.03 29.2933 103.419 28.5743 103.014 27.2319C100.987 20.5008 94.0298 3.84245 74.5 2C52.624 -0.0637742 43.6959 13.8869 41.2462 18.8183C40.7812 19.7542 39.7214 20.2877 38.7132 20.0127Z" fill="#EAA8A6" stroke="#AB7C8C" stroke-width="3" stroke-linejoin="round"/>
</svg>
