<svg width="128" height="53" viewBox="0 0 128 53" fill="none" xmlns="http://www.w3.org/2000/svg">
<path d="M27.5 26C13.4167 26 2 34.0589 2 44C2 46.1395 2.49247 48.1315 3.45198 50.017C3.76894 50.6399 4.42682 51 5.12568 51H48.987H85.2435H92.2886H122.048C122.65 51 123.227 50.7332 123.578 50.2442C125.309 47.8349 126.289 45.0267 126.289 42C126.289 33.1634 118.493 26 108 26C105.451 26 103.019 26.4227 100.798 27.1893C99.4246 27.6635 97.8456 26.7685 97.5928 25.3372C95.2538 12.0926 83.1187 2 68.5 2C53.8766 2 41.7384 12.0991 39.4049 25.35C39.1757 26.6519 37.8463 27.5148 36.5697 27.1718C33.7517 26.4146 30.6945 26 27.5 26Z" fill="#EBAAA8" stroke="#AB7C8C" stroke-width="3" stroke-linejoin="round"/>
</svg>
